<svg width="145" height="105" viewBox="0 0 145 105" fill="none" xmlns="http://www.w3.org/2000/svg">
<g id="Frame 42">
<rect width="145" height="105" fill="white"/>
<g id="Group 135">
<path id="Vector" d="M19.183 44.8246C19.0316 44.8246 18.7592 44.9146 18.6986 45.2627L16.8805 53.9468V53.9648C16.8805 54.5169 17.1675 54.775 17.199 54.805C17.251 54.841 17.5834 55.0751 18.1398 55.0751H20.3448C20.9393 55.0751 21.2735 54.841 21.3086 54.817C21.3649 54.769 21.701 54.4629 21.5587 53.8508L19.7061 45.2206C19.6504 44.9506 19.3985 44.8246 19.1842 44.8246H19.183ZM11.9735 63.081C11.8379 63.081 11.6393 62.961 11.5679 62.907C11.5697 62.907 11.3862 62.727 11.4649 62.4209L16.3798 40.6523C16.4077 40.4303 16.5936 40.2082 16.6614 40.1422H16.6589C16.6626 40.1422 16.9314 39.9622 17.3691 39.9622H21.0416C21.4788 39.9622 21.7894 40.1482 21.8239 40.1722C21.8178 40.1782 22.0479 40.4123 22.1054 40.7123L27.211 62.4137C27.2945 62.7318 27.1056 62.9058 27.096 62.9238C27.096 62.9238 26.8974 63.0678 26.5341 63.0678H24.4835C24.0537 63.0498 23.8175 62.8578 23.7976 62.8458C23.8024 62.8458 23.5754 62.6177 23.4464 62.2816L22.6824 59.1069C22.5916 58.6928 22.2301 58.3327 22.1889 58.2967C22.1587 58.2667 21.7324 57.9126 21.041 57.9126H17.3903C17.3467 57.9066 17.3055 57.9066 17.2632 57.9066C16.7667 57.9066 16.355 58.2487 16.3078 58.2847C16.2533 58.3387 15.8477 58.7288 15.7992 59.1309L15.0697 62.3477C15.0091 62.6345 14.7633 62.8458 14.7633 62.8458C14.7427 62.8638 14.5103 63.0678 14.0411 63.0678H12.031L11.9741 63.0798L11.9735 63.081Z" fill="black"/>
<path id="Vector_2" d="M3.77357 70.2769C3.54047 70.2769 3.31223 70.1029 3.24684 70.0368C3.153 69.9408 2.96834 69.6888 3.00467 69.5087L3.01496 69.4787V36.3025C3.01496 35.9004 3.23049 35.6904 3.23049 35.6904C3.26682 35.6526 3.47085 35.4443 3.84016 35.4443H5.99307C6.37328 35.4443 6.65663 35.6664 6.68145 35.6904C6.6766 35.6904 6.90182 35.9665 6.90182 36.3025V65.1456C6.90182 65.7758 7.2893 66.2199 7.30867 66.2319C7.35529 66.2859 7.70826 66.616 8.30642 66.616H141.834C142.168 66.616 142.377 66.808 142.381 66.808C142.378 66.808 142.575 67.0541 142.575 67.4802V69.4487C142.575 69.7908 142.338 70.0368 142.336 70.0368C142.321 70.0608 142.118 70.2709 141.747 70.2709H3.84016L3.77357 70.2769Z" fill="black"/>
<path id="Vector_3" d="M44.9115 64.0111C42.1592 64.0111 39.9016 62.8889 38.7198 60.9384C37.6887 59.1559 37.3418 57.8116 37.3418 53.3705V45.3585C37.3418 40.7134 37.6415 39.261 38.9444 37.5746C40.2582 35.8882 42.3094 35 44.8715 35C49.6254 35 52.3989 38.0608 52.4788 43.3961C52.4788 43.3961 52.4606 43.7141 52.2196 43.9242L52.1972 43.9422L52.1779 43.9662C52.1718 43.9722 51.9702 44.2051 51.5694 44.2051H49.497C49.1973 44.2051 48.9558 43.953 48.9521 43.947C48.7281 43.6949 48.6579 43.4669 48.6252 43.3408C48.489 40.2441 47.1431 38.5337 44.8292 38.5337C41.8359 38.5337 41.2329 40.8082 41.2329 44.4751V53.9755C41.2329 58.0865 41.8262 60.4691 44.8703 60.4691C47.3332 60.4691 48.6252 58.5966 48.7088 54.8997C48.7088 54.8937 48.7148 54.5336 48.9437 54.3055C48.9497 54.2995 49.1937 54.0715 49.5806 54.0715H51.6511C52.098 54.0715 52.3038 54.2875 52.3159 54.2995C52.5442 54.4976 52.5599 54.8397 52.5599 54.9357C52.5212 60.8724 49.8754 64.0099 44.9115 64.0099V64.0111ZM63.1119 38.5769C59.991 38.6249 59.4007 40.6594 59.4007 44.3923V54.6968C59.4007 58.3577 60.0061 60.4703 63.115 60.4703C66.2124 60.4703 66.8341 58.2617 66.8341 54.6968V44.3923C66.8341 40.7974 66.2287 38.5769 63.2197 38.5769H63.1119ZM63.1216 64.0111C60.3972 63.9751 58.2649 63.0329 57.1194 61.3645C55.9449 59.7321 55.5065 57.9376 55.5065 54.7389V44.3143C55.5065 41.1035 55.9727 39.177 57.1097 37.6527C58.3962 35.9182 60.4141 35.036 63.1156 35.036C65.7783 35.036 67.9784 35.9902 69.1602 37.6467C70.3166 39.3031 70.7664 41.1755 70.7664 44.3143V54.7389C70.7664 57.9196 70.3039 59.8341 69.1638 61.3525C67.8307 63.0929 65.7958 64.0111 63.2803 64.0111H63.1216ZM118.907 64.0111C116.306 63.9751 114.257 63.1169 113.142 61.5985C111.926 59.9241 111.534 58.2437 111.534 54.6608V36.3023C111.534 35.9362 111.749 35.7382 111.762 35.7262C111.783 35.7022 112.028 35.4441 112.367 35.4441H114.518C114.94 35.4441 115.184 35.6662 115.194 35.6782C115.194 35.6782 115.418 35.9482 115.39 36.2843L115.386 55.339C115.386 58.9339 116.438 60.4703 118.901 60.4703C121.368 60.4703 122.375 58.9879 122.375 55.339V36.3023C122.375 35.9662 122.6 35.6902 122.623 35.6662C122.625 35.6662 122.904 35.4441 123.243 35.4441H125.356C125.734 35.4441 125.976 35.7022 125.982 35.7022C126 35.7202 126.227 35.9662 126.227 36.3443V54.6188C126.227 58.2917 125.808 60.1162 124.627 61.5853C123.353 63.1937 121.483 64.0099 119.068 64.0099H118.906L118.907 64.0111ZM130.786 63.567C130.403 63.567 130.159 63.345 130.149 63.333C130.08 63.2609 129.892 63.0149 129.919 62.7748V36.3023C129.919 36.0863 130.115 35.8342 130.195 35.7562C130.281 35.6602 130.536 35.4441 130.786 35.4441H141.585C142.035 35.4441 142.245 35.6542 142.253 35.6662C142.253 35.6662 142.417 35.8762 142.417 36.3023V38.1088C142.417 38.4929 142.235 38.7329 142.211 38.7629C142.203 38.7629 141.96 38.937 141.628 38.937H135.251C134.658 38.937 134.216 39.3211 134.197 39.3391C134.156 39.3811 133.767 39.8192 133.767 40.5694V45.6406C133.767 46.2468 134.17 46.6429 134.187 46.6609C134.205 46.6789 134.607 47.069 135.251 47.069H140.654C141.039 47.069 141.279 47.297 141.292 47.309C141.292 47.309 141.483 47.5491 141.483 47.9332V49.7456C141.506 50.0157 141.32 50.2617 141.246 50.3398C141.179 50.3998 140.949 50.5738 140.725 50.5738L140.652 50.5678H135.213C134.644 50.6158 134.267 50.9759 134.223 51.0179C134.206 51.0359 133.807 51.438 133.807 52.0802V58.5978C133.807 59.27 134.146 59.618 134.185 59.6661C134.308 59.8041 134.686 60.0742 135.212 60.0742H141.584C141.892 60.0742 142.177 60.3442 142.179 60.3442C142.201 60.3682 142.455 60.6023 142.455 60.9744V62.7448C142.455 63.0449 142.232 63.321 142.21 63.345C142.204 63.345 141.925 63.567 141.584 63.567H130.786ZM79.2061 48.3353C78.7157 48.3353 78.3113 47.9092 78.2877 47.8852C78.232 47.8312 77.7367 47.363 77.8215 46.8229V40.4133C77.8215 39.8072 78.2562 39.3691 78.301 39.3271C78.3531 39.2911 78.8065 38.937 79.3084 38.937H79.7958C83.36 38.937 84.6877 40.1973 84.6877 43.5881C84.6877 47.039 83.36 48.3233 79.7958 48.3233H79.3357C79.289 48.3293 79.2497 48.3353 79.2055 48.3353H79.2061ZM85.0994 51.9542L85.126 51.9482C84.3462 51.114 85.1484 50.6158 85.867 50.0637C87.6894 48.6522 88.7017 46.4748 88.7017 43.3481C88.7017 38.1748 85.947 35.4441 80.7282 35.4441H74.8022C74.5431 35.4441 74.2846 35.6422 74.2198 35.7022C74.218 35.7082 73.9715 35.9902 73.9715 36.3023V62.7448C73.9715 63.0869 74.1677 63.333 74.1623 63.333C74.1804 63.345 74.4238 63.567 74.7586 63.567H76.9926C77.3644 63.567 77.5678 63.357 77.586 63.333C77.5884 63.333 77.8221 63.0989 77.8221 62.7448V53.2445C77.8221 52.6263 78.149 52.2422 78.1823 52.2002L78.2029 52.1822L78.2259 52.1642C78.2392 52.1462 78.6933 51.6421 79.5215 51.9062C83.2716 53.5806 85.8253 57.7576 86.2854 62.7208C86.3242 63.1529 86.4573 63.537 86.9998 63.537H89.1551C89.6237 63.537 89.8272 63.2609 89.8102 62.7628C89.6365 58.4418 87.8426 54.6008 85.0988 51.9542H85.0994ZM107.675 35.6722C107.664 35.6662 107.42 35.4441 107.039 35.4441H104.844C104.459 35.4441 104.221 35.6722 104.213 35.6722C104.212 35.6782 103.948 35.9482 103.975 36.3023C103.975 36.6024 103.978 39.021 103.984 42.2738C101.375 38.0848 97.5779 35.4441 93.3423 35.4441H93.2654C92.9264 35.4441 92.6461 35.6662 92.6418 35.6662C92.6237 35.6842 92.4057 35.9482 92.436 36.3023V62.7748C92.4057 63.0689 92.6297 63.333 92.6297 63.333C92.6418 63.345 92.884 63.567 93.2654 63.567H95.4601C95.8464 63.567 96.0855 63.345 96.094 63.333C96.094 63.333 96.3567 63.0629 96.3277 62.7028V40.3953C96.3277 40.2693 96.341 40.1673 96.3658 40.0832C100.675 42.1057 103.859 47.9932 104.002 55.0089C104.009 59.264 104.014 62.6008 104.014 62.7748C103.987 63.0689 104.211 63.333 104.211 63.333C104.221 63.345 104.465 63.567 104.843 63.567H107.038C107.125 63.567 107.195 63.555 107.25 63.537C107.486 63.477 107.657 63.345 107.664 63.345C107.683 63.321 107.897 63.0629 107.868 62.7028L107.87 36.2363C107.897 35.9422 107.675 35.6722 107.675 35.6722Z" fill="black"/>
</g>
</g>
</svg>
