<svg width="145" height="105" viewBox="0 0 145 105" fill="none" xmlns="http://www.w3.org/2000/svg">
<g id="Frame 31">
<rect width="145" height="105" fill="white"/>
<g id="Group 134">
<path id="Vector" d="M6 66.5311C6.68136 66.6825 7.28701 66.8339 8.04407 66.8339C10.1638 66.8339 10.6181 66.0769 10.5424 64.7142V59.1119H12.3593V64.8656C12.3593 67.5153 10.9966 68.4238 8.27119 68.4238C7.43842 68.4238 6.45424 68.3481 6 68.1967V66.5311ZM26.8949 64.3356C26.8949 67.2882 25.0023 68.4995 21.974 68.4995C18.9458 68.4995 17.0531 67.2882 17.0531 64.3356V59.0362H18.8701V64.1842C18.8701 65.6984 19.4 66.9854 21.974 66.9854C24.548 66.9854 25.078 65.7741 25.078 64.1842V59.0362H26.8949V64.3356ZM31.5887 59.0362H33.4056V66.6825H40.0678V68.2724H31.5887V59.0362ZM44.0045 59.0362H52.2565V60.626H45.8215V62.7458H51.4237V64.2599H45.8215V66.6825H52.4079V68.2724H44.0045V59.0362ZM63.6124 61.8373C63.3096 61.0046 62.5525 60.3232 60.3571 60.3232C59.1458 60.3232 57.9345 60.626 57.9345 61.4588C57.9345 61.8373 58.1616 62.2916 59.9785 62.5187L62.174 62.8215C64.2181 63.1243 65.4294 63.9571 65.4294 65.4712C65.4294 67.6667 63.3853 68.4995 60.887 68.4995C56.9503 68.4995 55.9661 66.5311 55.739 65.8498L57.4802 65.3198C57.7831 66.0012 58.4644 66.9854 60.9627 66.9854C62.4011 66.9854 63.6881 66.5311 63.6881 65.6984C63.6881 65.0927 63.0068 64.7142 61.7198 64.5628L59.5243 64.2599C57.4045 63.9571 56.1932 63.0486 56.1932 61.6102C56.1932 58.8091 59.7514 58.8091 60.5085 58.8091C64.4452 58.8091 65.1266 60.626 65.4294 61.3074C65.278 61.3074 63.6124 61.8373 63.6124 61.8373ZM76.6339 59.0362H81.7819C83.3717 59.0362 85.8701 59.0362 85.8701 61.8373C85.8701 64.6385 83.296 64.6385 81.7819 64.6385H78.4508V68.1967H76.6339V59.0362ZM82.1604 63.2C83.2203 63.2 84.0531 63.1243 84.0531 61.913C84.0531 60.7017 83.1446 60.626 82.1604 60.626H78.4508V63.2H82.1604ZM92.3051 59.0362H94.3492L98.8158 68.2724H96.9232L95.939 66.1526H90.6395L89.6554 68.2724H87.7627L92.3051 59.0362ZM95.2576 64.6385L93.365 60.5503L91.4723 64.6385H95.2576ZM102.601 59.0362H104.494L110.626 65.6984V59.0362H112.367V68.2724H110.702L104.267 61.3831V68.2724H102.525V59.0362H102.601ZM124.253 61.8373C123.95 61.0046 123.193 60.3232 120.998 60.3232C119.786 60.3232 118.575 60.626 118.575 61.4588C118.575 61.8373 118.802 62.2916 120.619 62.5187L122.815 62.8215C124.859 63.1243 126.07 63.9571 126.07 65.4712C126.07 67.6667 124.026 68.4995 121.528 68.4995C117.591 68.4995 116.607 66.5311 116.38 65.8498L118.121 65.3198C118.424 66.0012 119.105 66.9854 121.603 66.9854C123.042 66.9854 124.329 66.5311 124.329 65.6984C124.329 65.0927 123.647 64.7142 122.36 64.5628L120.165 64.2599C118.045 63.9571 116.834 63.0486 116.834 61.6102C116.834 58.8091 120.392 58.8091 121.149 58.8091C125.086 58.8091 125.767 60.626 126.07 61.3074L124.253 61.8373ZM140 64.3356C140 67.2882 138.107 68.4995 135.079 68.4995C132.051 68.4995 130.158 67.2882 130.158 64.3356V59.0362H131.975V64.1842C131.975 65.6984 132.505 66.9854 135.079 66.9854C137.653 66.9854 138.183 65.7741 138.183 64.1842V59.0362H140V64.3356ZM23.3367 79.6283H22.0497V79.1741H25.1537V79.6283H23.8667V81.9752H23.3367V79.6283ZM26.365 81.9752H26.8949V79.1741H26.365V81.9752ZM30.6045 80.0068C30.5288 79.7797 30.3017 79.5526 29.6203 79.5526C29.2418 79.5526 28.8633 79.6283 28.8633 79.9311C28.8633 80.0825 28.939 80.1582 29.4689 80.2339L30.1503 80.3096C30.7559 80.3854 31.1345 80.6882 31.1345 81.1424C31.1345 81.8238 30.5288 82.0509 29.7718 82.0509C28.5605 82.0509 28.2576 81.4452 28.1819 81.2181L28.7119 81.0667C28.7876 81.2938 29.0147 81.5967 29.7718 81.5967C30.226 81.5967 30.6045 81.4452 30.6045 81.2181C30.6045 81.0667 30.3774 80.9153 29.9989 80.8396L29.3175 80.7639C28.6362 80.6882 28.3333 80.3854 28.3333 79.9311C28.3333 79.0983 29.3932 79.0984 29.6203 79.0984C30.8316 79.0984 31.0588 79.6283 31.1345 79.8554L30.6045 80.0068ZM34.6169 80.0068C34.5412 79.7797 34.3141 79.5526 33.6328 79.5526C33.2542 79.5526 32.8757 79.6283 32.8757 79.9311C32.8757 80.0825 32.9514 80.1582 33.4814 80.2339L34.1627 80.3096C34.7684 80.3854 35.1469 80.6882 35.1469 81.1424C35.1469 81.8238 34.5412 82.0509 33.7842 82.0509C32.5729 82.0509 32.2701 81.4452 32.1943 81.2181L32.7243 81.0667C32.8 81.2938 33.0271 81.5967 33.7842 81.5967C34.2384 81.5967 34.6169 81.4452 34.6169 81.2181C34.6169 81.0667 34.3898 80.9153 34.0113 80.8396L33.3299 80.7639C32.6486 80.6882 32.3458 80.3854 32.3458 79.9311C32.3458 79.0983 33.4056 79.0984 33.6328 79.0984C34.8441 79.0984 35.0712 79.6283 35.1469 79.8554L34.6169 80.0068ZM36.4339 79.1741H38.9322V79.6283H36.9638V80.3096H38.6294V80.7639H36.9638V81.521H39.0079V81.9752H36.4339V79.1741ZM40.2192 79.1741H41.8847C42.5661 79.1741 43.0203 79.3255 43.0203 80.0068C43.0203 80.5368 42.6418 80.8396 42.2633 80.8396L43.096 81.9752H42.4147L41.5819 80.8396H40.6734V81.9752H40.1435C40.2192 81.9752 40.2192 79.1741 40.2192 79.1741ZM41.809 80.3854C42.2633 80.3854 42.4904 80.3097 42.4904 80.0068C42.4904 79.704 42.2633 79.6283 41.809 79.6283H40.7492V80.4611C40.7492 80.3854 41.809 80.3854 41.809 80.3854ZM45.5186 79.1741H46.1243L47.487 81.9752H46.8814L46.5785 81.2938H44.9887L44.6859 81.9752H44.0802L45.5186 79.1741ZM46.4271 80.8396L45.8215 79.5526L45.2158 80.8396H46.4271ZM48.6226 79.1741H49.2282L51.1209 81.2181V79.1741H51.6508V81.9752H51.1209L49.1525 79.8554V81.9752H48.6226V79.1741ZM53.0893 79.1741H54.452C55.3605 79.1741 56.0418 79.5526 56.0418 80.5368C56.0418 81.521 55.3605 81.9752 54.452 81.9752H53.0893V79.1741ZM54.1492 81.521C55.0576 81.521 55.4362 81.2181 55.4362 80.5368C55.4362 79.8554 55.0576 79.6283 54.1492 79.6283H53.6192V81.521H54.1492ZM60.5842 79.1741H61.1898L62.5525 81.9752H61.9469L61.6441 81.2938H60.0542L59.7514 81.9752H59.1458L60.5842 79.1741ZM60.2056 78.417H60.7356L61.1898 78.9469H60.8113L60.2056 78.417ZM61.4927 80.8396L60.887 79.5526L60.2814 80.8396H61.4927ZM65.8836 79.1741H67.4734C67.9277 79.1741 68.7605 79.1741 68.7605 80.0068C68.7605 80.8396 68.0034 80.8396 67.4734 80.8396H66.4893V81.8995H65.9593V79.1741H65.8836ZM67.5492 80.3854C67.852 80.3854 68.1548 80.3854 68.1548 80.0068C68.1548 79.6283 67.852 79.6283 67.5492 79.6283H66.4136V80.3854H67.5492ZM70.6531 79.1741H71.2588L72.6215 81.9752H72.0158L71.713 81.2938H70.1232L69.8203 81.9752H69.2147L70.6531 79.1741ZM71.5616 80.8396L70.9559 79.5526L70.3503 80.8396H71.5616ZM73.8328 79.1741H75.4983C76.1797 79.1741 76.6339 79.3255 76.6339 80.0068C76.6339 80.5368 76.2554 80.8396 75.8768 80.8396L76.7096 81.9752H76.0282L75.1955 80.8396H74.287V81.9752H73.7571L73.8328 79.1741ZM75.4226 80.3854C75.8768 80.3854 76.104 80.3097 76.104 80.0068C76.104 79.704 75.8768 79.6283 75.4226 79.6283H74.3627V80.4611C74.3627 80.3854 75.4226 80.3854 75.4226 80.3854ZM78.0723 81.9752H78.6023V79.1741H78.0723V81.9752ZM82.2362 80.0068C82.1604 79.7797 81.9333 79.5526 81.252 79.5526C80.8734 79.5526 80.4949 79.6283 80.4949 79.9311C80.4949 80.0825 80.5706 80.1582 81.1006 80.2339L81.7819 80.3096C82.3876 80.3854 82.7661 80.6882 82.7661 81.1424C82.7661 81.8238 82.1604 82.0509 81.4034 82.0509C80.1921 82.0509 79.8893 81.4452 79.8136 81.2181L80.3435 81.0667C80.4192 81.2938 80.6463 81.5967 81.4034 81.5967C81.8576 81.5967 82.2362 81.4452 82.2362 81.2181C82.2362 81.0667 82.009 80.9153 81.6305 80.8396L80.9492 80.7639C80.2678 80.6882 79.965 80.3854 79.965 79.9311C79.965 79.0983 81.1006 79.0984 81.252 79.0984C82.4633 79.0984 82.6904 79.6283 82.7661 79.8554L82.2362 80.0068ZM86.2486 79.1741H87.6113C88.5198 79.1741 89.2011 79.5526 89.2011 80.5368C89.2011 81.521 88.5198 81.9752 87.6113 81.9752H86.2486V79.1741ZM87.3842 81.521C88.2927 81.521 88.6712 81.2181 88.6712 80.5368C88.6712 79.8554 88.2927 79.6283 87.3842 79.6283H86.8542V81.521H87.3842ZM90.4881 79.1741H92.9864V79.6283H91.0181V80.3096H92.6836V80.7639H91.0181V81.521H93.0621V81.9752H90.4881V79.1741ZM94.2734 79.1741H95.8633C96.3175 79.1741 97.1503 79.1741 97.1503 80.0068C97.1503 80.8396 96.3932 80.8396 95.8633 80.8396H94.8791V81.8995H94.3492V79.1741H94.2734ZM95.939 80.3854C96.2418 80.3854 96.5446 80.3854 96.5446 80.0068C96.5446 79.6283 96.2418 79.6283 95.939 79.6283H94.8034V80.3854H95.939ZM101.238 80.7639C101.238 81.6724 100.633 82.0509 99.7243 82.0509C98.8158 82.0509 98.2102 81.6724 98.2102 80.7639V79.1741H98.7401V80.7639C98.7401 81.2181 98.8915 81.5967 99.7243 81.5967C100.481 81.5967 100.633 81.2181 100.633 80.7639V79.1741H101.163V80.7639H101.238ZM102.753 81.9752H103.282V79.1741H102.753V81.9752ZM106.992 80.0068C106.916 79.7797 106.689 79.5526 106.008 79.5526C105.629 79.5526 105.251 79.6283 105.251 79.9311C105.251 80.0825 105.327 80.1582 105.856 80.2339L106.538 80.3096C107.144 80.3854 107.522 80.6882 107.522 81.1424C107.522 81.8238 106.916 82.0509 106.159 82.0509C104.948 82.0509 104.645 81.4452 104.569 81.2181L105.099 81.0667C105.175 81.2938 105.402 81.5967 106.159 81.5967C106.614 81.5967 106.992 81.4452 106.992 81.2181C106.992 81.0667 106.765 80.9153 106.386 80.8396L105.705 80.7639C105.024 80.6882 104.721 80.3854 104.721 79.9311C104.721 79.0983 105.781 79.0984 106.008 79.0984C107.219 79.0984 107.446 79.6283 107.522 79.8554L106.992 80.0068ZM111.307 79.4769C111.61 79.4012 111.837 79.3255 112.064 79.0984H112.367V81.9752H111.913V79.7797H111.307V79.4769ZM114.79 80.4611C114.487 80.3097 114.336 80.1582 114.336 79.8554C114.336 79.4012 114.714 79.0984 115.547 79.0984C116.38 79.0984 116.758 79.4769 116.758 79.8554C116.758 80.2339 116.531 80.3854 116.304 80.4611C116.455 80.5368 116.834 80.7639 116.834 81.1424C116.834 81.7481 116.304 81.9752 115.547 81.9752C114.866 81.9752 114.26 81.7481 114.26 81.1424C114.336 80.7639 114.638 80.5368 114.79 80.4611ZM115.547 81.5967C116.001 81.5967 116.304 81.521 116.304 81.1424C116.304 80.7639 115.925 80.6882 115.547 80.6882C115.168 80.6882 114.79 80.7639 114.79 81.1424C114.866 81.521 115.168 81.5967 115.547 81.5967ZM115.547 80.3096C115.925 80.3096 116.228 80.2339 116.228 79.9311C116.228 79.5526 115.774 79.5526 115.547 79.5526C115.32 79.5526 114.866 79.5526 114.866 79.9311C114.866 80.2339 115.168 80.3096 115.547 80.3096ZM119.711 79.6283H117.894V79.1741H120.316V79.4012L118.878 81.9752H118.272L119.711 79.6283ZM121.982 80.4611C121.679 80.3097 121.528 80.1582 121.528 79.8554C121.528 79.4012 121.906 79.0984 122.739 79.0984C123.572 79.0984 123.95 79.4769 123.95 79.8554C123.95 80.2339 123.723 80.3854 123.496 80.4611C123.647 80.5368 124.026 80.7639 124.026 81.1424C124.026 81.7481 123.496 81.9752 122.739 81.9752C121.982 81.9752 121.452 81.7481 121.452 81.1424C121.452 80.7639 121.755 80.5368 121.982 80.4611ZM122.739 81.5967C123.193 81.5967 123.496 81.521 123.496 81.1424C123.496 80.7639 123.118 80.6882 122.739 80.6882C122.36 80.6882 121.982 80.7639 121.982 81.1424C121.982 81.521 122.285 81.5967 122.739 81.5967ZM122.739 80.3096C123.118 80.3096 123.42 80.2339 123.42 79.9311C123.42 79.5526 122.966 79.5526 122.739 79.5526C122.512 79.5526 122.058 79.5526 122.058 79.9311C122.058 80.2339 122.36 80.3096 122.739 80.3096Z" fill="black"/>
<path id="Vector_2" d="M75.8764 29.7379C83.0685 27.1638 88.7464 27.4667 91.3962 29.5107L91.5476 29.7379C90.0334 27.0881 85.4154 25.8011 78.9803 27.1638C80.0402 25.7254 81.1758 24.3627 82.4628 23C81.6301 23.6056 79.6617 25.0441 77.5419 27.4667C74.3623 28.2994 70.8798 29.6621 67.1702 31.7819C67.0188 31.8576 66.8673 31.9333 66.7159 32.009C67.3216 29.6621 67.8515 27.6181 68.2301 27.2395C68.2301 27.2395 66.3374 29.1322 64.9747 33.9774C64.899 34.2045 64.8233 34.4316 64.7476 34.6588C64.6719 34.8859 64.6719 35.0373 64.5962 35.2644C64.5204 35.4915 64.5204 35.6429 64.4447 35.8701C63.082 42.078 58.7668 52.374 53.4673 52.6768C55.9656 53.8881 60.508 50.7085 63.2334 44.9548C63.9148 43.5164 64.4447 42.0023 64.8233 40.5638C64.9747 39.9582 65.5046 37.3085 66.1103 34.5073C66.7159 34.1288 67.3973 33.7503 68.0786 33.296C70.8798 31.7819 73.4538 30.6463 75.8764 29.7379ZM63.0063 36.7028C63.082 36.2486 63.3091 35.1887 63.612 34.0531C54.2244 40.6395 51.0447 48.5887 53.0888 52.2983L53.1645 52.5254C52.4075 48.7401 55.5114 42.3808 63.0063 36.7028ZM76.6334 30.8734C76.0278 31.0249 75.2707 31.252 74.5137 31.5548C69.9713 38.6712 66.7159 50.1785 74.438 66.6068C74.438 66.6068 67.0945 47.8316 76.6334 30.8734ZM61.4922 26.7853C65.8832 27.6938 70.2741 26.6339 75.5736 23.8328C75.5736 23.8328 69.0628 26.1797 63.6877 25.4226C58.2368 24.6655 55.7385 23.9842 52.9374 26.7096C54.5272 25.9525 57.1769 25.8768 61.4922 26.7853ZM91.7747 30.2678L91.699 30.1164C92.0775 32.009 88.5193 34.2802 83.7498 35.1887C80.343 35.7944 77.1634 35.5672 75.5736 34.6588C76.6334 36.3243 80.7216 37.3842 84.734 36.8542C89.3521 36.1729 92.1532 32.3876 91.7747 30.2678ZM75.6493 34.6588L75.5736 34.5831L75.6493 34.6588Z" fill="#E95B2B"/>
</g>
</g>
</svg>
