<svg width="105" height="35" viewBox="0 0 105 35" fill="none" xmlns="http://www.w3.org/2000/svg">
<g id="rivoli logo 1" clip-path="url(#clip0_288_570)">
<g id="&#208;&#161;&#208;&#187;&#208;&#190;&#208;&#185;_x0020_1">
<path id="Vector" d="M13.0638 13.6789L13.0638 13.6794C13.0504 15.0374 12.6802 16.1612 11.9343 16.9444C11.1908 17.725 10.0408 18.2022 8.39419 18.2022H1.50082H0H-0.25V18.4522V27.478V27.728H0H1.50082H1.75082V27.478V20.1587H6.69765L13.3491 27.6441L13.4237 27.728H13.536H15.5097H16.0698L15.6958 27.3111L9.18992 20.0572C11.1068 19.9447 12.5774 19.2371 13.5867 18.1587C14.687 16.9832 15.2181 15.3895 15.2038 13.7086L15.2038 13.7085C15.1895 12.0973 14.6288 10.4792 13.516 9.26117C12.3994 8.03895 10.7398 7.23389 8.56105 7.23389H0H-0.25V7.48389V8.912V9.162H0H1.50082H8.56105C10.1049 9.162 11.2303 9.74069 11.9691 10.5835C12.7122 11.4313 13.0772 12.5618 13.0638 13.6789Z" fill="#506369" stroke="#506369" stroke-width="0.5"/>
<path id="Vector_2" d="M22.6797 7.23413H22.4297V7.48413V27.4782V27.7282H22.6797H24.1533H24.4033V27.4782V7.48413V7.23413H24.1533H22.6797Z" fill="#506369" stroke="#506369" stroke-width="0.5"/>
<path id="Vector_3" d="M75.7056 17.4968V17.4968C75.7197 14.7489 74.8923 12.1024 73.2099 10.1386C71.5232 8.16965 68.9923 6.90576 65.6441 6.90576C62.2959 6.90576 59.772 8.16213 58.0884 10.1202C56.4094 12.0731 55.582 14.7052 55.582 17.4382C55.582 20.1294 56.417 22.7818 58.0978 24.7657C59.7832 26.7551 62.3068 28.0569 65.6441 28.0569C68.9809 28.0569 71.4974 26.7625 73.1794 24.7839C74.8568 22.8107 75.6915 20.1729 75.7056 17.4968ZM65.6441 26.1283C62.9517 26.1283 60.9446 25.0608 59.6028 23.4546C58.2563 21.8426 57.569 19.6738 57.5552 17.4652C57.5416 15.156 58.216 12.9972 59.5594 11.4199C60.8983 9.84795 62.9184 8.8334 65.6441 8.8334C68.3678 8.8334 70.3882 9.86798 71.7314 11.4515C73.0793 13.0405 73.7601 15.2005 73.7601 17.4666C73.7601 19.6742 73.0732 21.8423 71.7202 23.4541C70.3718 25.0604 68.3509 26.1283 65.6441 26.1283Z" fill="#506369" stroke="#506369" stroke-width="0.5"/>
<path id="Vector_4" d="M103.527 7.23413H103.277V7.48413V27.4782V27.7282H103.527H105.001H105.251V27.4782V7.48413V7.23413H105.001H103.527Z" fill="#506369" stroke="#506369" stroke-width="0.5"/>
<path id="Vector_5" d="M37.2541 18.6734H37.6212L37.4867 18.3318L33.1672 7.36347L33.1049 7.20508H32.9346H31.3223H30.9533L31.0901 7.54777L35.469 18.5161L35.5318 18.6734H35.7012H37.2541Z" fill="#506369" stroke="#506369" stroke-width="0.5"/>
<path id="Vector_6" d="M47.3335 7.20557H47.1633L47.1009 7.36396L40.1346 25.0531L39.4693 23.3631L39.4069 23.2047H39.2366H37.7109H37.3419L37.4788 23.5474L39.0967 27.5992L39.1595 27.7565H39.3288H40.9407H41.1101L41.1729 27.5992L49.1781 7.54826L49.3149 7.20557H48.9459H47.3335Z" fill="#506369" stroke="#506369" stroke-width="0.5"/>
<path id="Vector_7" d="M85.325 7.48413V7.23413H85.075H83.5742H83.3242V7.48413V18.4525V18.7025H83.5742H85.075H85.325V18.4525V7.48413Z" fill="#506369" stroke="#506369" stroke-width="0.5"/>
<path id="Vector_8" d="M96.0265 25.7715H85.325V23.4832V23.2332H85.075H83.5742H83.3242V23.4832V27.4781V27.7281H83.5742H96.0265H96.2765V27.4781V26.0215V25.7715H96.0265Z" fill="#506369" stroke="#506369" stroke-width="0.5"/>
</g>
</g>
<defs>
<clipPath id="clip0_288_570">
<rect width="105" height="35" fill="white"/>
</clipPath>
</defs>
</svg>
